<svg xmlns="http://www.w3.org/2000/svg" viewBox="0 0 160.36 155.02">
  <g id="Camada_2" data-name="Camada 2">
    <g id="Camada_1-2" data-name="Camada 1">
      <g>
        <path d="M139,10.69H21.38a2.67,2.67,0,0,0-1.89.78,2.71,2.71,0,0,0-.78,1.89v88.2a2.67,2.67,0,0,0,.78,1.89,2.64,2.64,0,0,0,1.89.79H139a2.64,2.64,0,0,0,1.89-.79,2.67,2.67,0,0,0,.78-1.89V13.36a2.73,2.73,0,0,0-.2-1,2.65,2.65,0,0,0-.58-.87,2.66,2.66,0,0,0-1.89-.78Zm-2.67,88.2H24.05V37.42H136.31Zm0-66.82H24.05V16H136.31Z" style="fill: #d6b8ff"/>
        <path d="M29.4,21.38h5.34v5.35H29.4Z" style="fill: #d6b8ff"/>
        <path d="M40.09,21.38h5.34v5.35H40.09Z" style="fill: #d6b8ff"/>
        <path d="M50.78,21.38h5.34v5.35H50.78Z" style="fill: #d6b8ff"/>
        <path d="M32.07,93.54H80.18a2.66,2.66,0,0,0,2.67-2.67V45.44a2.71,2.71,0,0,0-.78-1.9,2.67,2.67,0,0,0-1.89-.78H32.07a2.67,2.67,0,0,0-1.89.78,2.71,2.71,0,0,0-.78,1.9V90.87a2.66,2.66,0,0,0,2.67,2.67Zm2.67-45.43H77.51V88.2H34.74Z" style="fill: #d6b8ff"/>
        <path d="M65.14,54.83a2.64,2.64,0,0,0-1-1,2.69,2.69,0,0,0-1.35-.37H49.44a2.69,2.69,0,0,0-1.35.37,2.64,2.64,0,0,0-1,1l-6.68,12a2.6,2.6,0,0,0-.34,1.3,2.55,2.55,0,0,0,.34,1.3l6.68,12a2.68,2.68,0,0,0,2.33,1.37H62.81a2.68,2.68,0,0,0,2.33-1.37l6.68-12a2.55,2.55,0,0,0,.34-1.3,2.6,2.6,0,0,0-.34-1.3ZM61.23,77.51H51l-5.2-9.36L51,58.8H61.23l5.2,9.35Z" style="fill: #d6b8ff"/>
        <path d="M106.91,48.11h21.38v5.34H106.91Z" style="fill: #d6b8ff"/>
        <path d="M93.54,58.8h34.75v5.34H93.54Z" style="fill: #d6b8ff"/>
        <path d="M113.85,76.44l1.73-2a2.61,2.61,0,0,0,.61-1.35,2.66,2.66,0,0,0-1.16-2.6,2.67,2.67,0,0,0-1.4-.45l-17.11-.51a2.62,2.62,0,0,0-1.17.22,2.58,2.58,0,0,0-.95.72,2.7,2.7,0,0,0-.54,1,2.52,2.52,0,0,0,0,1.19l3.26,16.8A2.67,2.67,0,0,0,99,91.55a2.7,2.7,0,0,0,2.72-.86l1.73-2,8.15,6.92a2.66,2.66,0,0,0,1.73.64h.21a2.72,2.72,0,0,0,1.82-.93l6.93-8.15a2.69,2.69,0,0,0-.31-3.77ZM113,89.78l-8.15-6.93a2.66,2.66,0,0,0-3.62.16L99.7,74.93l8.22.25a2.66,2.66,0,0,0,.44,3.6l8.14,6.92Z" style="fill: #d6b8ff"/>
        <path d="M147,0H13.36A13.38,13.38,0,0,0,0,13.36V117.6A13.38,13.38,0,0,0,13.36,131H63.29a22.12,22.12,0,0,1-8.65,11.14,2.8,2.8,0,0,0-.87,1,2.62,2.62,0,0,0-.32,1.26v8A2.66,2.66,0,0,0,56.12,155h48.11a2.67,2.67,0,0,0,1.89-.78,2.72,2.72,0,0,0,.79-1.89v-8a2.62,2.62,0,0,0-.32-1.26,2.8,2.8,0,0,0-.87-1A22.19,22.19,0,0,1,97.06,131H147a13.38,13.38,0,0,0,13.36-13.36V13.36A13.38,13.38,0,0,0,147,0ZM101.56,145.71v4H58.8v-4A27.56,27.56,0,0,0,68.9,131H91.47A27.55,27.55,0,0,0,101.56,145.71ZM155,117.6a8,8,0,0,1-8,8H13.36a8,8,0,0,1-8-8v-2.68H155Zm0-8H5.34V13.36a8,8,0,0,1,8-8H147a8,8,0,0,1,8,8Z" style="fill: #d6b8ff"/>
        <path d="M117.6,136.31h5.34v5.34H117.6Z" style="fill: #d6b8ff"/>
        <path d="M128.29,136.31h5.34v5.34h-5.34Z" style="fill: #d6b8ff"/>
        <path d="M139,136.31h10.69v5.34H139Z" style="fill: #d6b8ff"/>
      </g>
    </g>
  </g>
</svg>
