<svg xmlns="http://www.w3.org/2000/svg" viewBox="0 0 165.42 197.16">
  <g id="Camada_2" data-name="Camada 2">
    <g id="Camada_1-2" data-name="Camada 1">
      <g>
        <path d="M111.84,49a9.55,9.55,0,0,0-3.09-2.13A9.5,9.5,0,0,0,98.4,62.45l16.19,16.2a9.57,9.57,0,0,0,3.08,2.06,9.56,9.56,0,0,0,7.28,0A9.57,9.57,0,0,0,128,78.65l34.6-34.6A9.51,9.51,0,0,0,149.19,30.6l-3.82,3.82a36.52,36.52,0,0,0-9.21-5.14V25a9.53,9.53,0,0,0-9.5-9.51H96.85v-3.3A12.15,12.15,0,0,0,84.7,0H51.46A12.15,12.15,0,0,0,39.31,12.15V25.87a6.76,6.76,0,0,0,6.75,6.75h44a6.76,6.76,0,0,0,6.75-6.75V21.23h29.8A3.76,3.76,0,0,1,130.38,25v2.66a36.73,36.73,0,1,0,0,72v88a3.76,3.76,0,0,1-1.1,2.63,3.69,3.69,0,0,1-2.63,1.09H9.5a3.72,3.72,0,0,1-3.72-3.72V25A3.72,3.72,0,0,1,9.5,21.23H28.73a2.87,2.87,0,0,0,2-.86,2.9,2.9,0,0,0,0-4.06,2.87,2.87,0,0,0-2-.86H9.5A9.51,9.51,0,0,0,0,25v162.7a9.53,9.53,0,0,0,9.5,9.5H126.65a9.53,9.53,0,0,0,9.5-9.5V98A36.75,36.75,0,0,0,159.8,64.91,2.89,2.89,0,0,0,155,62.72a2.9,2.9,0,0,0-.93,2,30.82,30.82,0,0,1-21.43,28.4,3,3,0,0,0-.48.16,31,31,0,1,1,9.12-54.72L121.3,58.48ZM91.06,25.87a1,1,0,0,1-.28.69,1,1,0,0,1-.68.28h-44a1,1,0,0,1-.68-.28,1,1,0,0,1-.28-.69V12.15a6.37,6.37,0,0,1,6.36-6.37H84.7a6.43,6.43,0,0,1,4.5,1.87,6.36,6.36,0,0,1,1.86,4.5Zm62.22,8.83a3.72,3.72,0,0,1,2.62-1.07,3.72,3.72,0,0,1,3.71,3.7A3.75,3.75,0,0,1,158.54,40l-34.6,34.6a3.61,3.61,0,0,1-1.2.8,3.69,3.69,0,0,1-1.43.29,3.64,3.64,0,0,1-1.42-.29,3.75,3.75,0,0,1-1.21-.8l-16.19-16.2a3.58,3.58,0,0,1-.81-1.21,3.63,3.63,0,0,1-.28-1.42A3.72,3.72,0,0,1,105.12,52a3.82,3.82,0,0,1,1.42.28,3.78,3.78,0,0,1,1.21.81l11.52,11.52a2.76,2.76,0,0,0,.93.62,2.85,2.85,0,0,0,1.11.22,2.93,2.93,0,0,0,2-.84Z" style="fill: #d6b8ff"/>
        <path d="M78.72,72.6H43.48a2.89,2.89,0,0,0-2.89,2.9,2.89,2.89,0,0,0,.84,2,2.92,2.92,0,0,0,2,.85H78.72a2.9,2.9,0,1,0,0-5.79Z" style="fill: #d6b8ff"/>
        <path d="M38,42.75H18.5a2.89,2.89,0,0,0,0,5.78H38a2.87,2.87,0,0,0,2-.86,2.9,2.9,0,0,0,0-4.06A2.87,2.87,0,0,0,38,42.75Z" style="fill: #d6b8ff"/>
        <path d="M43.48,91.81H78.72a2.89,2.89,0,0,0,2.89-2.9,2.89,2.89,0,0,0-.84-2,2.92,2.92,0,0,0-2-.85H43.48a2.9,2.9,0,1,0,0,5.79Z" style="fill: #d6b8ff"/>
        <path d="M90.9,107.69H43.48a2.87,2.87,0,0,0-2,.86,2.89,2.89,0,0,0,0,4,2.83,2.83,0,0,0,2,.87H90.9a2.88,2.88,0,0,0,1.12-.2,3.07,3.07,0,0,0,1-.63,3,3,0,0,0,.64-.94,2.9,2.9,0,0,0,.22-1.12,2.83,2.83,0,0,0-.22-1.12,3,3,0,0,0-.64-.95,2.89,2.89,0,0,0-2.08-.82Z" style="fill: #d6b8ff"/>
        <path d="M43.48,126.89h23.7a2.89,2.89,0,0,0,2-4.92,2.92,2.92,0,0,0-2-.87H43.47a2.94,2.94,0,0,0-2,.87,2.9,2.9,0,0,0,2,4.92Z" style="fill: #d6b8ff"/>
        <path d="M43.48,148.59H78.72a2.89,2.89,0,0,0,2-4.92,2.92,2.92,0,0,0-2-.87H43.48a2.89,2.89,0,0,0-2,4.92A2.88,2.88,0,0,0,43.48,148.59Z" style="fill: #d6b8ff"/>
        <path d="M43.48,162H90.9a2.9,2.9,0,0,0,0-5.79H43.48a2.9,2.9,0,1,0,0,5.79Z" style="fill: #d6b8ff"/>
        <path d="M24.63,70.1a11.69,11.69,0,1,0,8.26,3.42A11.63,11.63,0,0,0,24.63,70.1Zm0,17.58A5.95,5.95,0,0,1,19.18,84a5.94,5.94,0,0,1-.33-3.41,5.83,5.83,0,0,1,1.61-3,5.92,5.92,0,0,1,3-1.62A5.9,5.9,0,0,1,30.08,84a5.85,5.85,0,0,1-3.19,3.19A5.81,5.81,0,0,1,24.63,87.68Z" style="fill: #d6b8ff"/>
        <path d="M24.63,105.6A11.71,11.71,0,1,0,32.89,109,11.71,11.71,0,0,0,24.63,105.6Zm0,17.59a5.88,5.88,0,0,1-3.27-1A5.9,5.9,0,1,1,29.54,114a5.92,5.92,0,0,1-.73,7.45A6,6,0,0,1,24.63,123.19Z" style="fill: #d6b8ff"/>
        <path d="M24.63,140.72a11.71,11.71,0,1,0,8.26,3.43A11.71,11.71,0,0,0,24.63,140.72Zm0,17.58a5.87,5.87,0,0,1-3.27-1,5.89,5.89,0,0,1,2.12-10.69,5.85,5.85,0,0,1,3.41.33,5.9,5.9,0,0,1-2.26,11.35Z" style="fill: #d6b8ff"/>
      </g>
    </g>
  </g>
</svg>
