<svg xmlns="http://www.w3.org/2000/svg" viewBox="0 0 195.91 195.91">
  <g id="Camada_2" data-name="Camada 2">
    <g id="Camada_1-2" data-name="Camada 1">
      <g>
        <path d="M175,156.13a17.46,17.46,0,0,0,3.34-10.31v-23a3.82,3.82,0,0,0-3.82-3.83h-17.1a14.36,14.36,0,0,0-14.34,14.34v12.48a17.55,17.55,0,0,0,3.34,10.3,24.42,24.42,0,0,0-7.48,2.49,32.58,32.58,0,0,0-24-14.32l-.12,0a22.51,22.51,0,0,0,5.77-15V98a3.82,3.82,0,0,0-3.83-3.82H93.48a18.13,18.13,0,0,0-18.11,18.11v17a22.5,22.5,0,0,0,5.76,15l-.12,0a32.55,32.55,0,0,0-24,14.33,24.51,24.51,0,0,0-7.48-2.49,17.6,17.6,0,0,0,3.34-10.31v-23a3.82,3.82,0,0,0-1.12-2.71A3.86,3.86,0,0,0,49,119H31.91a14.36,14.36,0,0,0-14.33,14.34v12.48a17.52,17.52,0,0,0,3.33,10.31A25,25,0,0,0,0,180.75v11.34a3.82,3.82,0,0,0,3.83,3.82H192.08a3.82,3.82,0,0,0,3.83-3.82V180.75A25,25,0,0,0,175,156.13ZM25.22,133.34a6.69,6.69,0,0,1,6.69-6.69H45.18v4.66A4.15,4.15,0,0,1,41,135.46H25.22Zm0,9.77H41a11.71,11.71,0,0,0,4.14-.75v3.46a10,10,0,0,1-17,7.06A10.14,10.14,0,0,1,26,149.64a10,10,0,0,1-.76-3.82Zm12.45,20.34-2.47,2.47-2.47-2.47Zm13.82,13.23v11.58H7.65v-7.51a17.33,17.33,0,0,1,14.5-17.07L32.5,174a3.94,3.94,0,0,0,1.24.82,3.72,3.72,0,0,0,1.47.3,3.67,3.67,0,0,0,1.46-.3,3.83,3.83,0,0,0,1.24-.82l10.35-10.36a17.26,17.26,0,0,1,5.23,1.75A32.22,32.22,0,0,0,51.49,176.68ZM98,144.14A15,15,0,0,1,83,129.21v-5.06h22.87a14.49,14.49,0,0,0,7-1.79v6.85A15,15,0,0,1,98,144.14Zm6.67,7.65L98,158.46l-6.67-6.67ZM83,112.24a10.46,10.46,0,0,1,10.46-10.46h19.41v7.71a7,7,0,0,1-2,5,7.09,7.09,0,0,1-5,2.06H83Zm53.75,76H59.14V180.6H84.05a3.83,3.83,0,1,0,0-7.65H59.42A24.94,24.94,0,0,1,80.69,152l14.56,14.55a3.81,3.81,0,0,0,1.24.83,3.89,3.89,0,0,0,1.47.29,3.84,3.84,0,0,0,1.46-.29,3.7,3.7,0,0,0,1.24-.83L115.22,152a24.9,24.9,0,0,1,21.55,24.65Zm14-54.92a6.69,6.69,0,0,1,6.68-6.69h13.28v4.66a4.17,4.17,0,0,1-4.15,4.15H150.73Zm0,9.77h15.81a11.76,11.76,0,0,0,4.15-.75v3.46a10,10,0,1,1-20,0Zm12.45,20.34-2.47,2.47-2.47-2.47Zm-18.75,24.81V176.68a32.47,32.47,0,0,0-2-11.25,17,17,0,0,1,5.23-1.75L158,174a3.94,3.94,0,0,0,1.24.82,3.72,3.72,0,0,0,1.47.3,3.67,3.67,0,0,0,1.46-.3,3.83,3.83,0,0,0,1.24-.82l10.35-10.36a17.33,17.33,0,0,1,14.5,17.07v7.51Z" style="fill: #d6b8ff"/>
        <path d="M116.81,25a3.83,3.83,0,0,0-5.41,0L92.63,43.78l-8.12-8.12a3.81,3.81,0,0,0-1.24-.83,3.89,3.89,0,0,0-1.47-.29,3.84,3.84,0,0,0-1.46.29,3.7,3.7,0,0,0-1.24.83,3.81,3.81,0,0,0-.83,1.24A3.89,3.89,0,0,0,78,38.37a3.84,3.84,0,0,0,.29,1.46,3.7,3.7,0,0,0,.83,1.24L89.92,51.89a3.81,3.81,0,0,0,1.24.83,3.71,3.71,0,0,0,1.47.29,3.66,3.66,0,0,0,1.46-.29,3.7,3.7,0,0,0,1.24-.83l21.48-21.48a3.61,3.61,0,0,0,.83-1.24,3.66,3.66,0,0,0,.29-1.46,3.71,3.71,0,0,0-.29-1.47A3.81,3.81,0,0,0,116.81,25Z" style="fill: #d6b8ff"/>
        <path d="M113.6,3.32A3.65,3.65,0,0,0,112.15,3a3.72,3.72,0,0,0-1.48.25,3.87,3.87,0,0,0-2.12,2,3.85,3.85,0,0,0-.08,2.93,3.71,3.71,0,0,0,.8,1.26,3.85,3.85,0,0,0,1.21.87,30.8,30.8,0,1,1-25.18.06,3.83,3.83,0,0,0-3.15-7,38.44,38.44,0,1,0,31.45-.07Z" style="fill: #d6b8ff"/>
        <path d="M98.09,0H98a3.83,3.83,0,0,0,0,7.65h.12a3.82,3.82,0,0,0,3.84-3.81A3.82,3.82,0,0,0,98.09,0Z" style="fill: #d6b8ff"/>
        <path d="M100.66,174.07a3.82,3.82,0,0,0-4.83-.47,3.84,3.84,0,0,0-1.53,2.07,3.78,3.78,0,0,0,.13,2.57,3.81,3.81,0,0,0,6.48,1,3.76,3.76,0,0,0,.87-2.42A3.82,3.82,0,0,0,100.66,174.07Z" style="fill: #d6b8ff"/>
      </g>
    </g>
  </g>
</svg>
