<svg xmlns="http://www.w3.org/2000/svg" viewBox="0 0 172.66 172.63">
  <g id="Camada_2" data-name="Camada 2">
    <g id="Camada_1-2" data-name="Camada 1">
      <g>
        <path d="M80.59,92.07A17.19,17.19,0,0,0,69.08,96.5V77.68a8.64,8.64,0,0,0-8.63-8.63H20.17a8.64,8.64,0,0,0-8.63,8.63v23.55a8.58,8.58,0,0,0-9.27,13.85,8.51,8.51,0,0,0,0,11.51,8.51,8.51,0,0,0,0,11.51A8.57,8.57,0,0,0,11.54,152v.53a8.64,8.64,0,0,0,8.63,8.63h5.75v11.51h5.76V161.12H60.45a8.64,8.64,0,0,0,8.63-8.63V109.33a11.49,11.49,0,0,1,2.41-7,11.61,11.61,0,0,1,6.22-4.11v74.45h5.76V94.94a3,3,0,0,0-.22-1.1,3.06,3.06,0,0,0-.63-.93,2.66,2.66,0,0,0-.93-.62A2.77,2.77,0,0,0,80.59,92.07ZM8.66,146.73A2.86,2.86,0,0,1,6,145a2.89,2.89,0,0,1-.16-1.67,2.83,2.83,0,0,1,.79-1.47A2.94,2.94,0,0,1,8.1,141a2.88,2.88,0,1,1,.56,5.7Zm0-11.51A2.86,2.86,0,0,1,6,133.45a2.87,2.87,0,0,1-.16-1.66,2.82,2.82,0,0,1,.79-1.48,2.94,2.94,0,0,1,1.47-.79,2.88,2.88,0,0,1,2.59,4.86,2.92,2.92,0,0,1-2,.85Zm0-11.5a2.87,2.87,0,0,1-2.82-3.44A2.9,2.9,0,0,1,8.1,118a2.87,2.87,0,0,1,2.59,4.85A2.92,2.92,0,0,1,8.66,123.72Zm0-11.51a2.87,2.87,0,0,1-2.82-3.44,2.9,2.9,0,0,1,2.26-2.26,2.88,2.88,0,1,1,.56,5.7Zm54.67,40.28a2.87,2.87,0,0,1-.84,2,2.93,2.93,0,0,1-2,.85H20.17a2.92,2.92,0,0,1-2-.85,2.88,2.88,0,0,1-.85-2v-5.76h46Zm0-43.16V141h-46V89.19h46Zm0-25.89h-46V77.68a2.89,2.89,0,0,1,2.88-2.87H60.45a2.89,2.89,0,0,1,2.88,2.87Z" style="fill: #d6b8ff"/>
        <path d="M123.75,0a49,49,0,1,0,34.56,14.34A49,49,0,0,0,123.75,0Zm0,92.07a43.21,43.21,0,1,1,30.5-12.66A43.11,43.11,0,0,1,123.75,92.07Z" style="fill: #d6b8ff"/>
        <path d="M123.74,11.51a37.44,37.44,0,1,0,26.44,11A37.38,37.38,0,0,0,123.74,11.51Zm0,69.05a31.68,31.68,0,1,1,22.37-9.28A31.71,31.71,0,0,1,123.74,80.56Z" style="fill: #d6b8ff"/>
        <path d="M126.62,46h-5.75a5.75,5.75,0,1,1,0-11.5h5.75a5.75,5.75,0,0,1,5.76,5.75h5.75a11.51,11.51,0,0,0-11.51-11.51V23h-5.75v5.75a11.51,11.51,0,0,0,0,23h5.75a5.76,5.76,0,0,1,0,11.51h-5.75a5.77,5.77,0,0,1-5.76-5.76h-5.75a11.51,11.51,0,0,0,11.51,11.51v5.76h5.75V69.05a11.51,11.51,0,1,0,0-23Z" style="fill: #d6b8ff"/>
        <path d="M104,46H98v6h6Z" style="fill: #d6b8ff"/>
        <path d="M150,46h-6v6h6Z" style="fill: #d6b8ff"/>
        <path d="M46,35H40v5h6Z" style="fill: #d6b8ff"/>
        <path d="M57,35H52v5h5Z" style="fill: #d6b8ff"/>
        <path d="M69,35H64v5h5Z" style="fill: #d6b8ff"/>
        <path d="M35,35H29v5h6Z" style="fill: #d6b8ff"/>
        <path d="M35,46H29v6h6Z" style="fill: #d6b8ff"/>
        <path d="M35,57H29v7h6Z" style="fill: #d6b8ff"/>
        <path d="M107,144h-7v6h7Z" style="fill: #d6b8ff"/>
        <path d="M95,144H89v6h6Z" style="fill: #d6b8ff"/>
        <path d="M118,144h-6v6h6Z" style="fill: #d6b8ff"/>
        <path d="M129,144h-5v6h5Z" style="fill: #d6b8ff"/>
        <path d="M141,144h-6v6h6Z" style="fill: #d6b8ff"/>
        <path d="M152,144h-5v6h5Z" style="fill: #d6b8ff"/>
        <path d="M152,133h-5v5h5Z" style="fill: #d6b8ff"/>
        <path d="M152,121h-5v5h5Z" style="fill: #d6b8ff"/>
        <path d="M152,109h-5v6h5Z" style="fill: #d6b8ff"/>
        <path d="M152,98h-5v6h5Z" style="fill: #d6b8ff"/>
        <path d="M52.66,101.54,37.43,116.77l-6.6-6.6-4.07,4.07,8.64,8.63a2.66,2.66,0,0,0,.93.62,2.86,2.86,0,0,0,2.2,0,2.66,2.66,0,0,0,.93-.62l17.27-17.26Z" style="fill: #d6b8ff"/>
      </g>
    </g>
  </g>
</svg>
